# xmcd
#
# Track frame offsets: 
#        150
#        19897
#        39563
#        58804
#        84769
#        105897
#        135170
#        157834
#        176898
#        193451
#        213094
#        230156
#        249640
#        269897
#        289172
#        308973
#        328396
#
# Disc length: 4779 seconds
#
# Revision: 0
# Processed by: cddbd v1.5.2PL0 Copyright (c) Steve Scherf et al.
# Submitted via: ExactAudioCopy v1.3
#
DISCID=fa12a911
DTITLE=Various Artist - Akella Presents - vol. 159 - Blues-Rock  CD1
DYEAR=2018
DGENRE=Blues
TTITLE0=Blindside Blues Band - I Got The Fire
TTITLE1=A.K. McLeod - Between Sinners and Saints
TTITLE2=Head Honchos - Fire On The Bayou
TTITLE3=Dirty Dave Osti - Midnight Mojo Man
TTITLE4=Bacon Fat - Morefun Boogie
TTITLE5=Matty T Wall - Shake It
TTITLE6=Rick Parfitt - Halloween
TTITLE7=Glenn Kaiser Band - Used To Be
TTITLE8=Rebel Soul Revival - Don't Get Mad (Get Even)
TTITLE9=Crow Black Chicken - Freedom
TTITLE10=James House and The Blues Cowboys - Which Side of the River
TTITLE11=Travis Bowlin - Slow Cooker Man - Travis Bowlin
TTITLE12=Danny Bryant - Sister Decline
TTITLE13=Righteous Continental and Brian Eldridge - Heartbreaker
TTITLE14=The Apocalypse Blues Revue - Hell To Pay
TTITLE15=Subluna - Let It Roll
TTITLE16=Steve Hill - Never Is Such A Long Time
EXTD=
EXTT0=
EXTT1=
EXTT2=
EXTT3=
EXTT4=
EXTT5=
EXTT6=
EXTT7=
EXTT8=
EXTT9=
EXTT10=
EXTT11=
EXTT12=
EXTT13=
EXTT14=
EXTT15=
EXTT16=
PLAYORDER=
